<svg xmlns="http://www.w3.org/2000/svg" width="98" height="96" fill="none" viewBox="0 0 98 96"><path fill="currentColor" d="M49 0C21.922 0 0 22.146 0 49.5 0 71.379 14.035 89.937 33.523 96c2.45.465 3.348-1.073 3.348-2.375 0-1.173-.049-5.035-.072-9.133-13.622 3.016-16.491-5.889-16.491-5.889-2.225-5.753-5.43-7.287-5.43-7.287-4.44-3.095.336-3.033.336-3.033 4.909.35 7.494 5.137 7.494 5.137 4.361 7.584 11.444 5.394 14.235 4.123.438-3.22 1.707-5.42 3.108-6.675-10.872-1.265-22.306-5.551-22.306-24.696 0-5.456 1.909-9.91 5.043-13.426-.508-1.267-2.184-6.372.476-13.284 0 0 4.117-1.351 13.488 5.104 3.904-1.113 8.09-1.671 12.248-1.691 4.158.02 8.347.578 12.261 1.691 9.359-6.455 13.465-5.104 13.465-5.104 2.667 6.912.991 12.017.483 13.284 3.142 3.516 5.045 7.97 5.045 13.426 0 19.194-11.458 23.418-22.359 24.658 1.761 1.551 3.332 4.595 3.332 9.255 0 6.683-.059 12.068-.059 13.54 0 1.312.881 2.863 3.369 2.371C83.977 89.918 98 71.369 98 49.5 98 22.146 76.078 0 49 0"/></svg>