<svg xmlns="http://www.w3.org/2000/svg" viewBox="0 0 299.744 116.574"><defs><style>.a{fill:#555}</style></defs><rect width="30.449" height="103.069" x="169.56" y="382.984" class="a" rx="3.944" ry="3.944" transform="rotate(90 284.89 201.162)"/><rect width="30.449" height="72.569" x="184.81" y="362.712" class="a" rx="3.944" ry="3.944" transform="rotate(90 300.14 165.64)"/><rect width="30.449" height="42.986" x="199.602" y="341.982" class="a" rx="3.944" ry="3.944" transform="rotate(90 314.932 130.118)"/><path d="M150.514 15.38a1.64 1.64 0 0 0-1.136-.765 31 31 0 0 0-4.52-.493 18.04 18.04 0 0 0-10.762 3.377l.15-.735a1.64 1.64 0 0 0-1.608-1.968h-7.419a1.64 1.64 0 0 0-1.608 1.312l-7.379 36.097a1.64 1.64 0 0 0 1.608 1.97h7.418a1.64 1.64 0 0 0 1.608-1.311l4.256-20.696a11.72 11.72 0 0 1 3.964-6.628 9.65 9.65 0 0 1 6.454-2.744 7.7 7.7 0 0 1 4.533 1.328 1.642 1.642 0 0 0 2.494-.848l2.109-6.538a1.64 1.64 0 0 0-.162-1.359m11.328 39.469c5.146 0 9.327-.966 12.498-2.88l-.047.22a1.64 1.64 0 0 0 1.604 1.986h7.809a1.64 1.64 0 0 0 1.605-1.3l7.653-36.097a1.64 1.64 0 0 0-1.606-1.981h-7.808a1.64 1.64 0 0 0-1.605 1.297l-4.765 22.253a8.85 8.85 0 0 1-3.963 5.429 12.07 12.07 0 0 1-7.08 2.399c-4.54 0-5.153-2.016-5.153-3.987a11.7 11.7 0 0 1 .277-2.39l4.88-23.02a1.64 1.64 0 0 0-1.605-1.981h-7.809a1.64 1.64 0 0 0-1.608 1.312l-4.84 23.69a19 19 0 0 0-.425 3.838 10.7 10.7 0 0 0 3.268 8.29c2.124 1.939 5.058 2.922 8.72 2.922m55.434-22.742-5.47-2.564a15.4 15.4 0 0 1-3.76-2.213 1.86 1.86 0 0 1-.679-1.455 2.24 2.24 0 0 1 1.342-2.02 7.96 7.96 0 0 1 4.201-1.058 11.32 11.32 0 0 1 7.219 2.679 1.64 1.64 0 0 0 2.451-.485l3.32-5.932a1.64 1.64 0 0 0-.84-2.331 33.2 33.2 0 0 0-11.603-2.605 21.16 21.16 0 0 0-12.044 3.33 10.92 10.92 0 0 0-5.253 9.433 8.85 8.85 0 0 0 1.543 4.971 11.1 11.1 0 0 0 4.466 3.723l5.485 2.618a16.3 16.3 0 0 1 3.726 2.289 1.74 1.74 0 0 1 .67 1.33 3.48 3.48 0 0 1-1.577 3.045 8.1 8.1 0 0 1-4.785 1.313 12.5 12.5 0 0 1-4.292-.987 13.4 13.4 0 0 1-3.89-2.12 1.64 1.64 0 0 0-2.455.36l-3.865 6.067a1.64 1.64 0 0 0 .602 2.325 26.2 26.2 0 0 0 12.611 3.03c5.316 0 9.788-1.233 13.291-3.663a12.19 12.19 0 0 0 5.568-10.517 8.74 8.74 0 0 0-1.53-4.962 10.64 10.64 0 0 0-4.452-3.601m45.304 20.756 4.648-22.69a20.6 20.6 0 0 0 .421-3.995 11.37 11.37 0 0 0-3.614-8.91c-2.344-2.087-5.607-3.145-9.7-3.145a21.9 21.9 0 0 0-7.66 1.435 22 22 0 0 0-2.564 1.14l2.702-14.76A1.64 1.64 0 0 0 245.2 0h-7.38a1.64 1.64 0 0 0-1.61 1.319L226.02 52.21a1.64 1.64 0 0 0 1.61 1.963h7.575a1.64 1.64 0 0 0 1.608-1.31l5.4-26.323a15.6 15.6 0 0 1 4-2.528 12.1 12.1 0 0 1 5-1.217c4.746 0 5.387 2.323 5.387 4.595a11 11 0 0 1-.24 2.131l-4.646 22.682a1.64 1.64 0 0 0 1.607 1.97h7.653a1.64 1.64 0 0 0 1.607-1.312M147.247 78.453a33.2 33.2 0 0 0-11.603-2.605 21.16 21.16 0 0 0-12.044 3.33 10.92 10.92 0 0 0-5.254 9.433 8.84 8.84 0 0 0 1.545 4.971 11.1 11.1 0 0 0 4.465 3.722l5.485 2.62a16.3 16.3 0 0 1 3.725 2.287 1.74 1.74 0 0 1 .67 1.33 3.48 3.48 0 0 1-1.576 3.046 8.1 8.1 0 0 1-4.786 1.313 12.5 12.5 0 0 1-4.292-.987 13.4 13.4 0 0 1-3.889-2.12 1.64 1.64 0 0 0-2.456.36l-3.865 6.067a1.64 1.64 0 0 0 .603 2.325 26.2 26.2 0 0 0 12.61 3.029c5.316 0 9.789-1.232 13.293-3.662a12.2 12.2 0 0 0 5.567-10.517 8.74 8.74 0 0 0-1.53-4.962 10.64 10.64 0 0 0-4.452-3.601l-5.47-2.563a15.3 15.3 0 0 1-3.76-2.216 1.86 1.86 0 0 1-.679-1.453 2.24 2.24 0 0 1 1.341-2.02 7.96 7.96 0 0 1 4.202-1.058 11.3 11.3 0 0 1 7.219 2.679 1.642 1.642 0 0 0 2.452-.486l3.318-5.931a1.64 1.64 0 0 0-.84-2.331m32.204-1.931h-9.338l2.217-8.247a1.642 1.642 0 0 0-2.094-1.986l-8.473 2.763a1.64 1.64 0 0 0-1.091 1.197l-1.427 6.273h-3.532a1.64 1.64 0 0 0-1.593 1.247l-1.25 5.056a1.64 1.64 0 0 0 1.593 2.034h2.752l-4.499 18.447a11.3 11.3 0 0 0-.401 2.73 10.22 10.22 0 0 0 2.985 7.706 11.22 11.22 0 0 0 8.065 2.832c4.978 0 8.524-.356 10.841-1.087a1.64 1.64 0 0 0 1.145-1.485l.273-5.628a1.64 1.64 0 0 0-2.216-1.617 16.2 16.2 0 0 1-5.63 1.143c-3.774 0-4.294-1.69-4.294-3.516a13 13 0 0 1 .46-2.846l4.068-16.68h10.19a1.64 1.64 0 0 0 1.592-1.246l1.25-5.056a1.64 1.64 0 0 0-1.593-2.034m42.885 2.535c-3.223-2.16-8.246-3.209-15.36-3.209a23.87 23.87 0 0 0-18.661 8.22 27.5 27.5 0 0 0-7.186 18.665c0 4.394 1.342 7.847 3.99 10.26 2.604 2.377 6.214 3.58 10.73 3.58a26.2 26.2 0 0 0 8.206-1.278 18 18 0 0 0 4.105-1.891 11 11 0 0 0 .754 1.678 1.64 1.64 0 0 0 1.42.818h7.574a1.64 1.64 0 0 0 1.51-2.285 23 23 0 0 1-1.782-9.096 11.7 11.7 0 0 1 .266-2.712l5.116-20.998a1.64 1.64 0 0 0-.682-1.752M196.527 89.42c2.822-3.409 5.958-5.067 9.59-5.067a17.7 17.7 0 0 1 5.24.527l-2.97 12.135a17.16 17.16 0 0 1-4.3 8.089c-1.96 1.995-3.953 2.965-6.092 2.965-4.049 0-5.777-1.656-5.777-5.538a19.96 19.96 0 0 1 4.31-13.11m62.832-11.562c-2.52-1.334-5.957-2.01-10.217-2.01-7.188 0-13.202 2.372-17.873 7.053-4.67 4.679-7.038 10.749-7.038 18.044a14.8 14.8 0 0 0 4.665 11.367c3.059 2.827 7.427 4.26 12.984 4.26a32.9 32.9 0 0 0 11.79-2.062 1.64 1.64 0 0 0 1.043-1.329l.82-6.538a1.64 1.64 0 0 0-2.448-1.625 19.9 19.9 0 0 1-10.033 2.78 7.8 7.8 0 0 1-5.437-2.184 7.37 7.37 0 0 1-2.333-5.78 15.6 15.6 0 0 1 4.009-10.95 13.23 13.23 0 0 1 10.397-4.363 11.64 11.64 0 0 1 6.61 1.636 1.642 1.642 0 0 0 2.518-.96l1.368-5.492a1.64 1.64 0 0 0-.825-1.847m25.076 17.186c5.902-4.864 10.877-9.234 14.803-13.003a1.642 1.642 0 0 0-.13-2.48l-4.998-3.876a1.64 1.64 0 0 0-2.271.252c-1.911 2.314-6.751 6.663-14.407 12.947l4.56-25.226a1.64 1.64 0 0 0-1.616-1.933h-7.223a1.64 1.64 0 0 0-1.611 1.328l-9.878 50.893a1.642 1.642 0 0 0 1.611 1.953h7.418a1.64 1.64 0 0 0 1.61-1.32l2.611-13.135 1.154-.864 11.814 14.706a1.64 1.64 0 0 0 1.28.613h8.744a1.64 1.64 0 0 0 1.275-2.675Z" style="fill:#c95228"/></svg>